<?xml version="1.0" encoding="UTF-8"?><svg id="Layer_1" xmlns="http://www.w3.org/2000/svg" viewBox="0 0 360 360"><defs><style>.cls-1{fill:#234075;}.cls-2{fill:#e3a82b;}.cls-3{fill:#fff;stroke:#fff;stroke-miterlimit:10;stroke-width:35px;}</style></defs><path class="cls-3" d="m81.8,243.6c44.7,0,106.5,25.2,151.4,25.2,32,0,63.3-8.5,81-21.1,1.2-7.4,1.9-15,1.9-22.7,0-75.1-60.9-136-136-136S44.1,149.9,44.1,225c0,7.7.6,15.2,1.9,22.5,4.8-1,21.5-3.9,35.8-3.9Z"/><path class="cls-2" d="m268,193.5l5.4,2.2,11.9-8.3-17.3,6.1Z"/><path class="cls-2" d="m67.6,184.2l-14.1-5,.7-1.7,15.9,5.3h.1l2.1-1.2.8-.5-17.4-7.4.7-1.8,38.8,15.6,1.3-.5-38.5-18.7.9-1.8,40.7,19,.6-.3-39.5-22.4.8-1.7,57,31c.5-.9,1.4-2.4,1.9-3.3-21.6-20.3-42.5-35.7-42.5-35.7,0,0,21.5,14.4,48.1,27.8.9-1.1,1.6-2,2.5-3l-48.7-42.8,1.3-1.3,39.3,33.5-36.4-36.5,1.4-1.4,40.8,39.5-38-42.2,1.5-1.3,35.1,37.6-32.1-40.4,1.4-1.3,41.1,50c1.1-.9,1.9-1.6,3.1-2.5-12.4-26.9-26-48.8-26-48.8,0,0,14.5,21.3,34,43.6,1.2-.7,2.4-1.3,3.6-1.9l-.2-.1-28.8-57.5,1.7-.8,23.9,45.7-20.1-47.4,1.8-.8,23.1,51.9-19.4-53.4,1.8-.7,18.5,48.1-14.7-49.4,1.8-.6,19.2,61.4v.2c1.3-.4,2.6-.8,3.9-1.2-1.5-29.5-5.8-54.7-5.8-54.7,0,0,5.4,25,15.1,52.9,1.3-.2,2.7-.3,4.1-.4v-.1h.2l-.1-.1-5.3-64.2,1.9-.1,5,51.4-.9-51.5,2-.1,2,56.8,2-56.8,2,.1-.9,51.5,5-51.4,1.9.1-5.2,64.1-.1.1h.1c1.3.1,2.7.2,4,.4,9.7-27.8,15.1-52.8,15.1-52.8,0,0-4.3,25.1-5.8,54.6,1.3.3,2.6.7,3.9,1.2l19.2-61.2,1.8.6-14.9,49.5,18.5-48.1,1.8.7-19.4,53.4,23.1-51.9,1.8.8-20.1,47.4,23.9-45.7,1.7.8-28.7,57.3c1.2.6,2.3,1.2,3.5,1.8,19.4-22.2,33.8-43.4,33.8-43.4,0,0-13.5,21.7-25.9,48.5,1.1.8,2.2,1.7,3.2,2.6l40.6-49.5,1.4,1.3-32.1,40.4,35.1-37.6,1.5,1.3-38,42.2,40.8-39.5,1.4,1.4-36.4,36.4,39.3-33.5,1.3,1.3-48.1,42.3c.8.9,1.6,1.9,2.4,2.9,26.4-13.3,47.7-27.6,47.7-27.6,0,0-20.7,15.2-42.3,35.4.6,1,1.5,2.7,2.1,3.7l56.2-30.6.8,1.7-44.9,25.5,46.7-21.7.9,1.8-43.5,21.2.8.3,44.2-17.9.7,1.8-41.1,17.5.8.3,27.4-9.1,4.1-2.9,1.4,1,9-3,.7,1.7-7.8,2.7,11.3,8.6,3.6,2c-14.3-60.5-68.8-105.5-133.8-105.5s-121.4,46.6-134.7,108.8c.2-.1.3-.2.5-.2l1.7-.7,1-.5,19-10.7Z"/><path class="cls-1" d="m44.6,250.3s20.3-4.1,37.3-4.1c44.7,0,106.5,25.2,151.4,25.2,32.9,0,65-9,82.5-22.2,1.4-7.8,2.1-15.8,2.1-24,0-11.1-1.3-21.8-3.8-32.2l-18.7-10.4-21.9,15.4-14.8-5.7c-5,2.5-35.8,23.1-35.8,23.1l-11.8-8.6-12.7-2.5-16.9-12.3-19.4,13.3s-21.7,12.6-22.4,12.6-26.1-20.1-26.1-20.1l-11.9-12.3c-2,1.3-10,4.9-10,4.9l-.4.1-7.7-2.4-9.4-5-28.4,12.9c-.2.1-.3.2-.5.2-2,9.3-3.1,19-3.1,29,.1,8.6.9,17,2.4,25.1Z"/></svg>