<svg width="286" height="180" xmlns="http://www.w3.org/2000/svg" xml:space="preserve" version="1.1">

 <g>
  <title>Layer 1</title>
  <g id="svg_1">
   <path id="svg_2" stroke-miterlimit="2.6131" stroke-width="0.5" stroke="#000000" clip-rule="evenodd" fill-rule="evenodd" d="m178.52999,107.805c12.05,0 21.82,9.77 21.82,21.82c0,12.05 -9.77,21.82 -21.82,21.82c-12.05,0 -21.82,-9.77 -21.82,-21.82c0,-12.05 9.77,-21.82 21.82,-21.82l0,0zm-85.05,-79.25l95.28,0c2.17,0 4.11,0.89 5.53,2.3c1.42,1.42 2.3,3.39 2.3,5.53l0,70.01c-2.46,-1.91 -5.24,-3.44 -8.25,-4.48l0,-63.63c0,-0.43 -0.16,-0.79 -0.46,-1.05c-0.26,-0.26 -0.66,-0.46 -1.05,-0.46l-91.49,0c-0.43,0 -0.79,0.16 -1.05,0.46c-0.26,0.26 -0.46,0.65 -0.46,1.05l0,70.02l0.03,0l31.97,-30.61c1.28,-1.18 3.29,-1.05 4.44,0.23c0.03,0.03 0.03,0.07 0.07,0.07l26.88,31.8c-4.73,5.18 -7.62,12.08 -7.62,19.65c0,3.29 0.55,6.45 1.55,9.4l-57.67,0c-2.17,0 -4.11,-0.89 -5.53,-2.3s-2.3,-3.39 -2.3,-5.53l0,-94.63c0,-2.17 0.89,-4.11 2.3,-5.53s3.39,-2.3 5.53,-2.3l0,0zm65.9,79.1l3.71,-22.79c0.3,-1.71 1.91,-2.9 3.62,-2.6c0.66,0.1 1.25,0.43 1.71,0.86l17.1,17.97c-2.18,-0.52 -4.44,-0.79 -6.78,-0.79c-7.43,-0.01 -14.21,2.77 -19.36,7.35l0,0zm8,-61.16c3.13,0 5.99,1.28 8.03,3.32c2.07,2.07 3.32,4.9 3.32,8.03c0,3.13 -1.28,5.99 -3.32,8.03c-2.07,2.07 -4.9,3.32 -8.03,3.32c-3.13,0 -5.99,-1.28 -8.03,-3.32c-2.07,-2.07 -3.32,-4.9 -3.32,-8.03c0,-3.13 1.28,-5.99 3.32,-8.03c2.07,-2.07 4.91,-3.32 8.03,-3.32l0,0zm3.84,69.86l19.96,21.6c1.58,-2.39 2.5,-5.25 2.5,-8.33c0,-8.36 -6.78,-15.14 -15.14,-15.14c-2.66,-0.01 -5.15,0.67 -7.32,1.87l0,0zm14.62,26.53l-19.96,-21.6c-1.58,2.39 -2.5,5.25 -2.5,8.33c0,8.36 6.78,15.14 15.14,15.14c2.66,0.01 5.15,-0.67 7.32,-1.87l0,0z" class="st0"/>
  </g>
 </g>
</svg>